<svg width="225" height="206" viewBox="0 0 225 206" fill="none" xmlns="http://www.w3.org/2000/svg">
<path d="M122.531 202.136C122.531 201.068 126.078 197.322 149.567 173.734C169.165 154.036 167.998 154.796 172.604 158.289C174.024 159.302 175.182 160.415 175.182 160.723C175.182 161.03 175.888 161.428 176.703 161.636C177.616 161.79 178.223 162.243 178.223 162.704C178.223 163.111 178.675 163.464 179.236 163.464C179.797 163.464 180.25 163.717 180.25 163.971C180.25 164.278 180.657 164.478 181.163 164.478C181.67 164.478 182.376 164.93 182.783 165.491C183.19 166.052 183.896 166.504 184.403 166.504C184.909 166.504 185.316 166.758 185.316 167.011C185.316 167.319 185.977 167.518 186.782 167.518C189.47 167.518 189.823 167.871 189.569 170.404C189.162 174.349 185.977 179.009 182.376 180.882C181.163 181.488 151.892 192.626 139.234 197.232C121.463 203.765 122.522 203.457 122.522 202.145L122.531 202.136Z" fill="#5B1D92"/>
<path d="M188.348 54.8493C188.348 41.1775 188.447 38.3906 189.053 38.3906C189.406 38.3906 189.868 38.8973 190.067 39.5578C190.221 40.1641 190.374 47.3031 190.374 55.4012C190.374 66.1324 190.528 70.2403 190.981 70.6927C191.433 71.1451 191.234 71.2989 189.967 71.2989H188.348V54.8403V54.8493Z" fill="#5B1D92"/>
<path d="M160.452 43.1045C159.592 42.9506 155.24 38.9513 146.527 30.1474C126.983 10.4043 124.549 7.77122 124.549 6.29637C124.549 5.59061 124.748 4.98438 125.001 4.98438C125.254 4.98438 132.746 7.6174 141.605 10.8567C150.463 14.0959 162.461 18.4481 168.342 20.5292C180.847 25.0352 184.086 26.5553 186.212 29.0345C187.678 30.7084 189.352 33.8481 189.352 34.9068C189.352 35.5673 185.959 35.4678 184.792 34.753C183.977 34.2463 183.679 34.3006 182.864 35.2597C182.303 35.8659 181.498 36.3726 181.046 36.3726C180.593 36.3726 180.231 36.6259 180.231 36.8793C180.231 37.1869 179.471 37.386 178.512 37.386C177.598 37.386 176.54 37.7389 176.187 38.146C175.834 38.5532 175.119 38.9061 174.667 38.9061C173.246 38.9061 172.133 39.4671 172.133 40.1728C172.133 40.5257 171.219 40.8786 169.808 41.0867C168.387 41.2405 167.121 41.7472 166.514 42.3987C165.501 43.4664 163.881 43.6654 160.443 43.1045H160.452Z" fill="#5B1D92"/>
<path d="M185.561 170.441C185 170.133 184.394 169.681 184.249 169.428C184.095 169.12 183.796 168.975 183.588 168.975C182.674 169.129 182.575 168.975 183.281 168.523C183.887 168.116 183.842 168.016 183.027 168.016C182.466 168.016 181.661 167.564 181.308 167.057C180.901 166.496 180.295 166.197 179.942 166.351C179.535 166.505 179.082 166.252 178.928 165.745C178.729 165.293 178.268 165.039 177.861 165.184C177.408 165.383 177.001 165.084 176.847 164.478C176.648 163.818 175.988 163.311 175.128 163.112C174.314 162.958 173.662 162.551 173.662 162.252C173.662 161.945 172.495 160.832 171.084 159.773C168.957 158.208 168.351 157.954 167.745 158.461C167.139 159.022 167.039 158.814 167.184 157.294C167.338 155.729 168.496 154.462 177.662 145.703C185.814 137.904 188.248 135.832 189.506 135.732C190.773 135.578 190.972 135.678 190.465 136.239C190.058 136.745 189.859 141.812 189.859 153.756L189.804 170.568L188.339 169.808C186.411 168.794 186.158 168.849 186.565 170.061C186.918 171.228 186.918 171.228 185.552 170.468L185.561 170.441Z" fill="#6B28A8"/>
<path d="M157.059 142.599C156.706 142.246 156.453 141.486 156.453 140.825C156.453 140.011 156.145 139.658 155.439 139.658C154.779 139.658 154.426 139.305 154.426 138.699C154.426 138.192 153.865 136.926 153.159 135.912C152.453 134.899 151.892 133.84 151.892 133.587C151.892 132.827 149.06 132.981 148.4 133.786C147.585 134.745 139.035 134.899 139.333 133.94C139.587 133.279 149.205 126.602 169.708 112.975C177.155 108.017 183.226 103.71 183.281 103.357C183.281 103.004 182.774 102.443 182.168 102.144C180.955 101.484 151.286 81.1797 143.686 75.7688C140.953 73.8416 138.727 72.0772 138.727 71.8238C138.727 71.5162 139.741 71.3171 140.953 71.3171C142.772 71.3171 143.432 71.5705 144.645 72.8372C146.518 74.864 148.237 74.864 148.644 72.8372C148.897 71.8238 149.25 71.3171 149.911 71.3171C150.418 71.3171 150.979 71.0638 151.123 70.8104C151.277 70.5028 151.829 70.3037 152.291 70.3037C154.109 70.3037 154.616 69.3899 154.978 65.4901C155.177 63.3638 155.638 61.2917 155.937 60.8845C156.29 60.4774 157.403 60.1788 158.416 60.1788C160.488 60.1788 159.022 58.1067 172.133 79.922C175.526 85.6404 179.679 92.4266 181.245 95.0144C183.724 98.9594 184.231 100.226 184.538 102.913L184.846 106.107L175.074 122.358C165.148 138.916 164.795 139.369 162.063 141.848C160.389 143.314 158.118 143.667 157.05 142.608L157.059 142.599Z" fill="#6B28A8"/>
<path d="M185.307 68.3224C183.787 66.757 177.354 60.5228 171.029 54.4515C160.95 44.779 159.484 43.1593 159.484 41.8473C159.484 40.5806 159.638 40.4268 160.19 40.8882C160.542 41.1959 161.203 41.3406 161.655 41.1416C162.063 40.9878 162.569 41.0873 162.768 41.3949C162.922 41.7026 163.329 41.9559 163.583 41.9559C163.89 41.9559 163.936 41.7569 163.782 41.4492C163.628 41.1959 163.782 41.0963 164.189 41.2502C164.596 41.404 165.048 41.1506 165.202 40.7435C165.401 40.2911 165.908 39.9291 166.315 39.9291C166.768 39.9291 166.976 39.7301 166.822 39.4224C166.668 39.1691 166.768 38.9157 167.075 38.9157C167.383 38.9157 167.528 38.7167 167.329 38.4633C167.175 38.21 167.274 37.8571 167.528 37.7033C167.781 37.5042 168.134 37.6037 168.342 37.9023C168.496 38.1557 169.102 38.6624 169.654 38.97C170.514 39.4224 170.667 39.3229 170.514 38.5628C170.414 38.1104 170.613 37.649 170.866 37.649C171.174 37.649 171.88 37.3413 172.54 36.9885C173.4 36.4818 173.653 36.4818 173.653 36.9342C173.653 37.3413 174.006 37.2418 174.567 36.7351C175.074 36.2284 175.78 35.8755 176.133 35.8755C176.485 35.8755 176.585 35.6222 176.386 35.3145C176.133 34.9074 176.332 34.9074 177.092 35.3145C178.458 36.0746 178.865 36.0203 178.557 35.215C178.358 34.7083 178.657 34.5545 179.517 34.7626C180.376 34.9164 180.729 34.7626 180.729 34.2016C180.729 33.7944 180.421 33.2877 180.123 33.1882C179.716 33.0344 179.815 32.8806 180.376 32.8806C180.829 32.8263 181.236 33.0796 181.236 33.3873C181.236 33.6949 181.589 33.5863 181.996 33.1339C182.448 32.7268 183.163 32.5277 183.615 32.6815C184.222 32.9349 184.321 32.8353 184.023 32.3286C183.769 31.9215 184.375 32.0753 185.488 32.7358C187.769 34.1021 187.968 34.1021 187.361 32.8896C187.054 32.3829 187.008 31.8219 187.162 31.6229C187.316 31.4691 187.262 31.3152 186.963 31.3152C186.71 31.3152 186.203 30.7542 185.896 30.0485C185.136 28.3746 185.995 28.4289 187.208 30.148C189.642 33.5954 189.841 35.3598 189.841 52.9314C189.841 67.6166 189.94 69.5348 190.7 70.4035C191.46 71.2631 191.406 71.3173 189.786 71.2631C188.42 71.1635 187.506 70.6025 185.28 68.3224H185.307Z" fill="#6B28A8"/>
<path d="M95.7935 184.618L95.9473 163.201L108.352 154.75C115.184 150.09 125.164 143.259 130.584 139.558C136.004 135.867 140.609 132.872 140.917 132.98C141.17 133.08 142.084 132.881 142.889 132.627C143.849 132.275 144.708 132.275 145.323 132.573C145.984 132.926 146.436 132.772 147.142 132.012C147.956 131.098 148.508 130.999 150.635 131.252C152.001 131.406 153.213 131.56 153.322 131.56C153.376 131.56 153.422 131.759 153.422 132.066C153.422 132.32 154.082 133.487 154.887 134.699C155.702 135.867 156.199 137.179 156.055 137.64C155.801 138.301 155.856 138.301 156.661 137.694C157.367 137.088 157.62 137.088 157.973 137.595C158.172 137.948 158.226 138.708 158.127 139.215C157.973 139.776 158.127 140.527 158.48 140.934C158.986 141.54 159.24 141.495 160.253 140.527C162.886 138.047 163.945 137.133 164.252 137.133C164.406 137.133 164.56 137.794 164.56 138.654C164.56 139.613 163.347 142.246 161.221 145.847C152.263 161.039 144.364 174.249 142.03 177.896C140.564 180.121 137.623 184.935 135.452 188.527C130.439 196.879 125.372 202.353 121.373 203.62C116.052 205.339 110.994 205.999 103.294 205.999H95.703L95.8025 184.637L95.7935 184.618Z" fill="#7E35C3"/>
<path d="M146.834 76.6195C146.074 75.7056 144.609 75.5518 145.061 76.52C145.26 76.8276 144.907 76.5743 144.301 75.8595C143.695 75.1537 143.387 74.9003 143.595 75.2985C143.794 75.7509 143.749 75.9047 143.396 75.6513C143.088 75.4523 142.944 75.0451 143.088 74.6922C143.342 73.9865 141.315 72.6654 140.455 72.9188C140.148 73.0183 133.416 68.6118 125.517 63.1467C117.618 57.6816 107.647 50.8955 103.439 48.0543L95.6939 42.9421V21.5793V0.261719L101.62 0.569358C104.914 0.723177 109.321 1.13035 111.393 1.42894C115.953 2.08945 126.078 4.92154 126.078 5.52777C126.078 5.78112 127.091 7.04787 128.358 8.35986C130.891 11.0924 134.429 16.6661 149.576 41.8744C158.688 57.1116 160.009 59.5455 160.009 61.3642C159.954 63.2915 159.909 63.391 159.249 62.4319C158.543 61.5181 158.434 61.5181 157.629 62.3324C156.968 62.9929 156.923 63.192 157.43 63.192C158.036 63.192 157.991 63.3458 157.376 64.1058C156.923 64.6668 156.715 65.825 156.769 67.3451C156.923 69.4171 156.715 69.8786 155.349 71.2449C154.39 72.204 153.63 72.6112 153.422 72.3126C153.222 71.9597 152.815 72.0592 152.408 72.5659C152.055 73.0183 151.449 73.2717 151.042 73.1269C150.635 72.9731 150.381 73.1269 150.481 73.4798C150.535 73.7874 150.282 74.647 149.875 75.3528C149.522 76.0585 149.314 76.719 149.422 76.8729C149.522 77.0267 149.169 77.1805 148.563 77.28C148.002 77.3796 147.196 77.081 146.843 76.6195H146.834Z" fill="#7E35C3"/>
<path d="M127.29 198.083C127.643 197.169 134.683 185.524 140.003 177.118C144.609 169.88 158.588 146.382 163.139 138.338C163.746 137.171 168.505 129.226 173.671 120.667C178.784 112.161 183.036 104.769 183.136 104.317C183.335 102.896 182.43 100.824 179.544 96.2185C178.078 93.7845 174.839 88.4189 172.35 84.2206C169.916 80.0674 166.379 74.2494 164.506 71.3088C162.687 68.3681 160.352 64.5226 159.393 62.7039C155.593 55.6192 131.398 15.6714 127.29 9.59098C126.078 7.81753 125.218 6.1979 125.318 5.94455C125.472 5.74549 127.797 7.87182 130.484 10.7039C138.736 19.4083 173.264 53.7915 184.556 64.5226C197.767 77.0272 217.519 96.318 221.365 100.372C222.93 102.091 224.251 103.71 224.305 104.063C224.305 104.823 192.763 135.198 191.442 135.705C190.881 135.859 190.329 136.266 190.13 136.564C189.976 136.872 189.777 144.111 189.723 152.661L189.669 168.251L189.515 152.86L189.361 137.524L181.869 144.608C174.422 151.648 136.501 189.723 130.882 195.749C127.996 198.834 126.684 199.694 127.29 198.074V198.083Z" fill="#943AD9"/>
<path d="M103.792 122.946C98.0736 121.733 92.8075 117.626 90.0749 112.215C88.0029 108.116 87.4419 101.782 88.8625 97.5295C90.7898 91.603 95.4948 86.7441 101.168 84.8711C105.113 83.5591 111.501 83.6586 115.193 85.0249C119.138 86.4907 123.599 90.6981 125.671 94.996C127.236 98.1358 127.345 98.742 127.345 103.447C127.345 107.899 127.191 108.867 125.924 111.5C123.897 115.852 120.658 119.453 116.912 121.426C114.225 122.846 113.066 123.145 109.872 123.245C107.8 123.344 105.059 123.19 103.801 122.937L103.792 122.946Z" fill="#FDE384"/>
<path d="M60.6592 205.176C48.0551 202.896 38.4278 196.218 32.7636 185.731C28.7643 178.339 27.9047 172.014 27.8504 150.29C27.8504 135.351 27.4432 132.519 24.7107 127.407C22.6839 123.607 17.825 119.055 13.4728 116.929C10.2335 115.309 3.39308 113.337 1.16722 113.337H0V103.465C0 95.9733 0.153819 93.5393 0.660519 93.3855C0.968159 93.286 3.23926 92.725 5.72752 92.173C16.6125 89.5943 23.2449 84.1201 26.5384 74.9091C27.4523 72.3303 27.5518 70.204 27.8504 52.3248C28.158 34.4003 28.3028 32.2287 29.271 28.6275C33.8313 11.9698 46.535 2.35154 66.5858 0.379027C69.6713 0.125678 73.5258 -0.0733821 75.1907 0.0261481L78.2309 0.179968L78.2852 11.5717C78.2852 17.8511 78.2309 23.47 78.0861 24.0763C77.9323 24.9901 77.5251 25.2435 76.2674 25.2435C73.5349 25.2435 67.6625 26.5555 65.5815 27.6775C62.5955 29.2428 59.863 32.0296 58.5962 34.7622C57.5828 36.9881 57.4833 38.101 57.1757 55.365C56.9223 69.5435 56.669 74.5019 55.9632 77.5964C53.8369 87.6761 49.1318 95.168 41.2327 100.986C39.1607 102.506 37.4868 103.927 37.4868 104.126C37.4868 104.325 38.3463 104.985 39.414 105.546C47.2588 110.107 52.9863 117.951 55.5651 127.977C56.7323 132.582 56.8318 133.804 57.0309 149.548C57.1847 158.759 57.5376 167.264 57.7909 168.531C59.3563 175.417 65.3372 179.769 74.4487 180.583L78.249 180.936L78.4028 193.495L78.5023 205.999L71.5623 205.945C67.7168 205.945 62.8579 205.592 60.6773 205.185L60.6592 205.176Z" fill="url(#paint0_linear_112_138)"/>
<defs>
<linearGradient id="paint0_linear_112_138" x1="39.2512" y1="0" x2="39.2512" y2="205.999" gradientUnits="userSpaceOnUse">
<stop stop-color="#8B30D6"/>
<stop offset="1" stop-color="#5B1494"/>
</linearGradient>
</defs>
</svg>
