<svg width="222" height="204" viewBox="0 0 222 204" fill="none" xmlns="http://www.w3.org/2000/svg">
<path d="M121.272 200.059C121.272 199.003 124.782 195.295 148.03 171.949C167.427 152.453 166.272 153.206 170.83 156.662C172.236 157.665 173.382 158.767 173.382 159.071C173.382 159.376 174.081 159.77 174.887 159.976C175.791 160.128 176.391 160.576 176.391 161.032C176.391 161.435 176.839 161.785 177.394 161.785C177.949 161.785 178.397 162.035 178.397 162.286C178.397 162.591 178.8 162.788 179.301 162.788C179.803 162.788 180.501 163.235 180.904 163.791C181.307 164.346 182.006 164.794 182.507 164.794C183.009 164.794 183.412 165.044 183.412 165.295C183.412 165.6 184.066 165.797 184.863 165.797C187.522 165.797 187.872 166.146 187.621 168.653C187.218 172.558 184.066 177.17 180.501 179.023C179.301 179.623 150.331 190.647 137.803 195.206C120.215 201.671 121.263 201.367 121.263 200.068L121.272 200.059Z" fill="#5B1D92"/>
<path d="M186.412 54.2857C186.412 40.7543 186.51 37.9961 187.11 37.9961C187.46 37.9961 187.916 38.4976 188.113 39.1513C188.266 39.7513 188.418 46.817 188.418 54.8319C188.418 65.4528 188.57 69.5185 189.018 69.9663C189.466 70.414 189.269 70.5663 188.015 70.5663H186.412V54.2767V54.2857Z" fill="#5B1D92"/>
<path d="M158.803 42.661C157.952 42.5088 153.645 38.5505 145.021 29.8371C125.678 10.2968 123.269 7.69083 123.269 6.23113C123.269 5.53262 123.466 4.93262 123.716 4.93262C123.967 4.93262 131.382 7.53859 140.149 10.7446C148.916 13.9505 160.791 18.258 166.612 20.3177C178.988 24.7774 182.194 26.2819 184.298 28.7356C185.749 30.3923 187.406 33.4998 187.406 34.5476C187.406 35.2013 184.048 35.1028 182.892 34.3953C182.086 33.8938 181.791 33.9476 180.985 34.8968C180.43 35.4968 179.633 35.9983 179.185 35.9983C178.737 35.9983 178.379 36.2491 178.379 36.4998C178.379 36.8043 177.627 37.0013 176.678 37.0013C175.773 37.0013 174.725 37.3505 174.376 37.7535C174.027 38.1565 173.319 38.5058 172.872 38.5058C171.466 38.5058 170.364 39.061 170.364 39.7595C170.364 40.1088 169.46 40.458 168.063 40.664C166.657 40.8162 165.403 41.3177 164.803 41.9625C163.8 43.0192 162.197 43.2162 158.794 42.661H158.803Z" fill="#5B1D92"/>
<path d="M183.654 168.689C183.098 168.385 182.498 167.937 182.355 167.686C182.203 167.382 181.907 167.238 181.701 167.238C180.797 167.391 180.698 167.238 181.397 166.791C181.997 166.388 181.952 166.289 181.146 166.289C180.591 166.289 179.794 165.841 179.445 165.34C179.042 164.785 178.442 164.489 178.093 164.641C177.69 164.794 177.242 164.543 177.09 164.041C176.893 163.594 176.436 163.343 176.033 163.486C175.585 163.683 175.182 163.388 175.03 162.788C174.833 162.134 174.179 161.632 173.328 161.435C172.522 161.283 171.878 160.88 171.878 160.585C171.878 160.28 170.722 159.179 169.325 158.131C167.221 156.582 166.621 156.331 166.021 156.832C165.421 157.388 165.322 157.182 165.466 155.677C165.618 154.128 166.764 152.874 175.836 144.206C183.904 136.486 186.313 134.435 187.558 134.337C188.812 134.185 189.009 134.283 188.507 134.838C188.104 135.34 187.907 140.355 187.907 152.176L187.854 168.815L186.403 168.062C184.495 167.059 184.245 167.113 184.648 168.313C184.997 169.468 184.997 169.468 183.645 168.716L183.654 168.689Z" fill="#6B28A8"/>
<path d="M155.445 141.134C155.096 140.785 154.845 140.033 154.845 139.379C154.845 138.573 154.54 138.224 153.842 138.224C153.188 138.224 152.839 137.875 152.839 137.275C152.839 136.773 152.284 135.519 151.585 134.516C150.887 133.513 150.331 132.466 150.331 132.215C150.331 131.463 147.528 131.615 146.875 132.412C146.069 133.361 137.606 133.513 137.902 132.564C138.152 131.91 147.672 125.301 167.964 111.815C175.334 106.907 181.343 102.645 181.397 102.295C181.397 101.946 180.896 101.391 180.296 101.095C179.096 100.442 149.731 80.3461 142.209 74.9909C139.504 73.0834 137.302 71.3372 137.302 71.0864C137.302 70.782 138.304 70.5849 139.504 70.5849C141.304 70.5849 141.958 70.8357 143.158 72.0894C145.012 74.0954 146.713 74.0954 147.116 72.0894C147.367 71.0864 147.716 70.5849 148.37 70.5849C148.872 70.5849 149.427 70.3342 149.57 70.0834C149.722 69.779 150.269 69.582 150.725 69.582C152.525 69.582 153.027 68.6775 153.385 64.8178C153.582 62.7133 154.039 60.6625 154.334 60.2596C154.684 59.8566 155.785 59.5611 156.788 59.5611C158.839 59.5611 157.388 57.5103 170.364 79.1014C173.722 84.7611 177.833 91.4775 179.382 94.0387C181.836 97.9432 182.337 99.1969 182.642 101.857L182.946 105.018L173.275 121.101C163.451 137.489 163.102 137.937 160.397 140.391C158.74 141.842 156.493 142.191 155.436 141.143L155.445 141.134Z" fill="#6B28A8"/>
<path d="M183.403 67.6206C181.898 66.0714 175.531 59.9012 169.272 53.8923C159.295 44.3191 157.845 42.7161 157.845 41.4176C157.845 40.1639 157.997 40.0117 158.543 40.4684C158.892 40.7729 159.546 40.9161 159.994 40.7191C160.397 40.5669 160.898 40.6654 161.095 40.9699C161.248 41.2744 161.651 41.5251 161.901 41.5251C162.206 41.5251 162.251 41.3281 162.098 41.0236C161.946 40.7729 162.098 40.6744 162.501 40.8266C162.904 40.9788 163.352 40.7281 163.504 40.3251C163.701 39.8773 164.203 39.5191 164.606 39.5191C165.054 39.5191 165.26 39.3221 165.107 39.0176C164.955 38.7669 165.054 38.5161 165.358 38.5161C165.663 38.5161 165.806 38.3191 165.609 38.0684C165.457 37.8176 165.555 37.4684 165.806 37.3161C166.057 37.1191 166.406 37.2176 166.612 37.5132C166.764 37.7639 167.364 38.2654 167.91 38.5699C168.761 39.0176 168.913 38.9191 168.761 38.1669C168.663 37.7191 168.86 37.2624 169.11 37.2624C169.415 37.2624 170.113 36.9579 170.767 36.6087C171.618 36.1072 171.869 36.1072 171.869 36.5549C171.869 36.9579 172.218 36.8594 172.773 36.3579C173.275 35.8564 173.973 35.5072 174.322 35.5072C174.672 35.5072 174.77 35.2564 174.573 34.952C174.322 34.549 174.519 34.549 175.272 34.952C176.624 35.7042 177.027 35.6505 176.722 34.8535C176.525 34.352 176.821 34.1997 177.672 34.4057C178.522 34.5579 178.872 34.4057 178.872 33.8505C178.872 33.4475 178.567 32.946 178.272 32.8475C177.869 32.6952 177.967 32.543 178.522 32.543C178.97 32.4893 179.373 32.74 179.373 33.0445C179.373 33.349 179.722 33.2415 180.125 32.7938C180.573 32.3908 181.281 32.1938 181.728 32.346C182.328 32.5967 182.427 32.4982 182.131 31.9967C181.881 31.5938 182.481 31.746 183.582 32.3997C185.839 33.752 186.036 33.752 185.436 32.552C185.131 32.0505 185.087 31.4952 185.239 31.2982C185.391 31.146 185.337 30.9938 185.042 30.9938C184.791 30.9938 184.29 30.4385 183.985 29.74C183.233 28.0833 184.084 28.137 185.284 29.8385C187.693 33.2505 187.89 34.9967 187.89 52.3878C187.89 66.9221 187.988 68.8206 188.74 69.6803C189.493 70.5311 189.439 70.5848 187.836 70.5311C186.484 70.4326 185.579 69.8774 183.376 67.6206H183.403Z" fill="#6B28A8"/>
<path d="M94.8088 182.721L94.961 161.524L107.239 153.16C114 148.548 123.877 141.787 129.242 138.124C134.606 134.47 139.164 131.506 139.469 131.614C139.719 131.712 140.624 131.515 141.421 131.264C142.37 130.915 143.221 130.915 143.83 131.211C144.483 131.56 144.931 131.408 145.63 130.655C146.436 129.751 146.982 129.652 149.086 129.903C150.439 130.055 151.639 130.208 151.746 130.208C151.8 130.208 151.845 130.405 151.845 130.709C151.845 130.96 152.498 132.115 153.295 133.315C154.101 134.47 154.594 135.769 154.451 136.226C154.2 136.879 154.254 136.879 155.051 136.279C155.749 135.679 156 135.679 156.349 136.181C156.546 136.53 156.6 137.282 156.501 137.784C156.349 138.339 156.501 139.082 156.851 139.485C157.352 140.085 157.603 140.041 158.606 139.082C161.212 136.629 162.26 135.724 162.564 135.724C162.716 135.724 162.869 136.378 162.869 137.229C162.869 138.178 161.669 140.784 159.564 144.348C150.698 159.384 142.88 172.458 140.57 176.067C139.119 178.27 136.209 183.035 134.06 186.59C129.098 194.855 124.083 200.273 120.125 201.527C114.86 203.229 109.854 203.882 102.233 203.882H94.7192L94.8177 182.739L94.8088 182.721Z" fill="#7E35C3"/>
<path d="M145.325 75.832C144.573 74.9275 143.122 74.7752 143.57 75.7335C143.767 76.0379 143.418 75.7872 142.818 75.0797C142.218 74.3812 141.913 74.1305 142.119 74.5245C142.316 74.9723 142.272 75.1245 141.922 74.8738C141.618 74.6767 141.475 74.2738 141.618 73.9245C141.869 73.226 139.863 71.9185 139.012 72.1693C138.707 72.2678 132.045 67.9066 124.227 62.4976C116.409 57.0887 106.54 50.3722 102.376 47.5603L94.7104 42.5006V21.3573V0.258789L100.576 0.563267C103.836 0.715506 108.197 1.11849 110.248 1.41401C114.761 2.06774 124.782 4.87073 124.782 5.47073C124.782 5.72148 125.785 6.97521 127.039 8.27372C129.546 10.9782 133.048 16.4946 148.039 41.4439C157.057 56.5245 158.364 58.9334 158.364 60.7334C158.31 62.6409 158.266 62.7394 157.612 61.7902C156.913 60.8857 156.806 60.8857 156.009 61.6917C155.355 62.3454 155.31 62.5424 155.812 62.5424C156.412 62.5424 156.367 62.6946 155.758 63.4469C155.31 64.0021 155.105 65.1484 155.158 66.6529C155.31 68.7036 155.105 69.1603 153.752 70.5126C152.803 71.4618 152.051 71.8648 151.845 71.5693C151.648 71.22 151.245 71.3185 150.842 71.82C150.493 72.2678 149.893 72.5185 149.49 72.3752C149.087 72.223 148.836 72.3752 148.934 72.7245C148.988 73.029 148.737 73.8797 148.334 74.5782C147.985 75.2767 147.779 75.9305 147.887 76.0827C147.985 76.2349 147.636 76.3872 147.036 76.4857C146.481 76.5842 145.684 76.2887 145.334 75.832H145.325Z" fill="#7E35C3"/>
<path d="M125.982 196.047C126.331 195.143 133.298 183.617 138.564 175.298C143.122 168.134 156.958 144.877 161.463 136.916C162.063 135.761 166.773 127.898 171.886 119.426C176.946 111.008 181.155 103.692 181.254 103.244C181.451 101.838 180.555 99.7874 177.698 95.2292C176.248 92.8203 173.042 87.5098 170.579 83.3546C168.17 79.2441 164.669 73.4859 162.815 70.5755C161.015 67.665 158.704 63.859 157.755 62.059C153.994 55.0471 130.048 15.5098 125.982 9.49185C124.782 7.73663 123.931 6.13364 124.03 5.88289C124.182 5.68588 126.483 7.79036 129.143 10.5933C137.31 19.2083 171.483 53.2381 182.66 63.8591C195.734 76.2352 215.284 95.3277 219.089 99.3397C220.639 101.041 221.946 102.644 222 102.993C222 103.746 190.782 133.808 189.475 134.31C188.919 134.462 188.373 134.865 188.176 135.161C188.024 135.465 187.827 142.629 187.773 151.092L187.719 166.522L187.567 151.289L187.415 136.11L180 143.122C172.63 150.089 135.098 187.773 129.537 193.737C126.68 196.79 125.382 197.641 125.982 196.038V196.047Z" fill="#943AD9"/>
<path d="M102.725 121.683C97.0655 120.483 91.8535 116.417 89.1491 111.062C87.0983 107.005 86.5431 100.737 87.9491 96.5276C89.8565 90.6619 94.5132 85.853 100.128 83.9992C104.033 82.7007 110.355 82.7992 114.009 84.1515C117.913 85.6022 122.328 89.7664 124.379 94.0201C125.928 97.1276 126.036 97.7276 126.036 102.384C126.036 106.79 125.883 107.749 124.63 110.354C122.624 114.662 119.418 118.226 115.71 120.178C113.051 121.584 111.904 121.88 108.743 121.978C106.692 122.077 103.979 121.925 102.734 121.674L102.725 121.683Z" fill="#FDE384"/>
<path d="M60.0359 203.068C47.5612 200.811 38.0329 194.202 32.4269 183.823C28.4687 176.507 27.6179 170.247 27.5642 148.745C27.5642 133.96 27.1612 131.157 24.4567 126.098C22.4508 122.336 17.6418 117.832 13.3343 115.727C10.1284 114.124 3.35821 112.172 1.15523 112.172H0V102.402C0 94.9871 0.152238 92.5782 0.653731 92.4259C0.958209 92.3274 3.20597 91.7722 5.66866 91.2259C16.4418 88.6737 23.006 83.2558 26.2657 74.1393C27.1702 71.5871 27.2687 69.4826 27.5642 51.7871C27.8687 34.0468 28.012 31.8975 28.9702 28.3334C33.4836 11.8468 46.0567 2.32737 65.9015 0.375133C68.9553 0.124386 72.7702 -0.0726281 74.418 0.0258794L77.4269 0.178118L77.4806 11.4527C77.4806 17.6677 77.4269 23.2289 77.2836 23.8289C77.1314 24.7334 76.7284 24.9841 75.4836 24.9841C72.7791 24.9841 66.9672 26.2826 64.9075 27.3931C61.9523 28.9423 59.2478 31.7005 57.9941 34.405C56.9911 36.608 56.8926 37.7095 56.5881 54.7961C56.3373 68.8289 56.0866 73.7364 55.3881 76.799C53.2836 86.7752 48.6269 94.1901 40.809 99.9483C38.7582 101.453 37.1015 102.859 37.1015 103.056C37.1015 103.253 37.9523 103.907 39.009 104.462C46.7732 108.975 52.4418 116.739 54.9941 126.662C56.1493 131.22 56.2478 132.429 56.4448 148.011C56.597 157.127 56.9463 165.545 57.197 166.799C58.7463 173.614 64.6657 177.921 73.6836 178.727L77.4448 179.077L77.597 191.507L77.6956 203.883L70.8269 203.829C67.0209 203.829 62.212 203.48 60.0538 203.077L60.0359 203.068Z" fill="#EEE3FC"/>
</svg>
