<svg width="372" height="308" viewBox="0 0 372 308" fill="none" xmlns="http://www.w3.org/2000/svg">
<path d="M194.272 200.059C194.272 199.003 197.782 195.295 221.03 171.949C240.427 152.453 239.272 153.206 243.83 156.662C245.236 157.665 246.382 158.767 246.382 159.071C246.382 159.376 247.081 159.77 247.887 159.976C248.791 160.128 249.391 160.576 249.391 161.032C249.391 161.435 249.839 161.785 250.394 161.785C250.949 161.785 251.397 162.035 251.397 162.286C251.397 162.591 251.8 162.788 252.302 162.788C252.803 162.788 253.502 163.235 253.905 163.791C254.308 164.346 255.006 164.794 255.508 164.794C256.009 164.794 256.412 165.044 256.412 165.295C256.412 165.6 257.066 165.797 257.863 165.797C260.523 165.797 260.872 166.146 260.621 168.653C260.218 172.558 257.066 177.17 253.502 179.023C252.302 179.623 223.332 190.647 210.803 195.206C193.215 201.671 194.263 201.367 194.263 200.068L194.272 200.059Z" fill="#5B1D92"/>
<path d="M259.412 54.2857C259.412 40.7543 259.511 37.9961 260.111 37.9961C260.46 37.9961 260.917 38.4976 261.114 39.1513C261.266 39.7513 261.418 46.817 261.418 54.8319C261.418 65.4528 261.57 69.5185 262.018 69.9663C262.466 70.414 262.269 70.5663 261.015 70.5663H259.412V54.2767V54.2857Z" fill="#5B1D92"/>
<path d="M231.803 42.661C230.952 42.5088 226.645 38.5505 218.021 29.8371C198.678 10.2968 196.269 7.69083 196.269 6.23113C196.269 5.53262 196.466 4.93262 196.716 4.93262C196.967 4.93262 204.382 7.53859 213.149 10.7446C221.916 13.9505 233.791 18.258 239.612 20.3177C251.988 24.7774 255.194 26.2819 257.299 28.7356C258.749 30.3923 260.406 33.4998 260.406 34.5476C260.406 35.2013 257.048 35.1028 255.893 34.3953C255.087 33.8938 254.791 33.9476 253.985 34.8968C253.43 35.4968 252.633 35.9983 252.185 35.9983C251.737 35.9983 251.379 36.2491 251.379 36.4998C251.379 36.8043 250.627 37.0013 249.678 37.0013C248.773 37.0013 247.725 37.3505 247.376 37.7535C247.027 38.1565 246.319 38.5058 245.872 38.5058C244.466 38.5058 243.364 39.061 243.364 39.7595C243.364 40.1088 242.46 40.458 241.063 40.664C239.657 40.8162 238.403 41.3177 237.803 41.9625C236.8 43.0192 235.197 43.2162 231.794 42.661H231.803Z" fill="#5B1D92"/>
<path d="M256.654 168.689C256.098 168.385 255.498 167.937 255.355 167.686C255.203 167.382 254.907 167.238 254.701 167.238C253.797 167.391 253.698 167.238 254.397 166.791C254.997 166.388 254.952 166.289 254.146 166.289C253.591 166.289 252.794 165.841 252.445 165.34C252.042 164.785 251.442 164.489 251.092 164.641C250.689 164.794 250.242 164.543 250.089 164.041C249.892 163.594 249.436 163.343 249.033 163.486C248.585 163.683 248.182 163.388 248.03 162.788C247.833 162.134 247.179 161.632 246.328 161.435C245.522 161.283 244.877 160.88 244.877 160.585C244.877 160.28 243.722 159.179 242.325 158.131C240.221 156.582 239.621 156.331 239.021 156.832C238.421 157.388 238.322 157.182 238.466 155.677C238.618 154.128 239.764 152.874 248.836 144.206C256.904 136.486 259.313 134.435 260.558 134.337C261.812 134.185 262.009 134.283 261.507 134.838C261.104 135.34 260.907 140.355 260.907 152.176L260.854 168.815L259.403 168.062C257.495 167.059 257.245 167.113 257.648 168.313C257.997 169.468 257.997 169.468 256.645 168.716L256.654 168.689Z" fill="#6B28A8"/>
<path d="M228.445 141.134C228.096 140.785 227.845 140.033 227.845 139.379C227.845 138.573 227.54 138.224 226.842 138.224C226.188 138.224 225.839 137.875 225.839 137.275C225.839 136.773 225.284 135.519 224.585 134.516C223.887 133.513 223.331 132.466 223.331 132.215C223.331 131.463 220.528 131.615 219.875 132.412C219.069 133.361 210.606 133.513 210.902 132.564C211.152 131.91 220.672 125.301 240.964 111.815C248.334 106.907 254.343 102.645 254.397 102.295C254.397 101.946 253.896 101.391 253.296 101.095C252.096 100.442 222.731 80.3461 215.209 74.9909C212.504 73.0834 210.302 71.3372 210.302 71.0864C210.302 70.782 211.304 70.5849 212.504 70.5849C214.304 70.5849 214.958 70.8357 216.158 72.0894C218.012 74.0954 219.713 74.0954 220.116 72.0894C220.367 71.0864 220.716 70.5849 221.37 70.5849C221.872 70.5849 222.427 70.3342 222.57 70.0834C222.722 69.779 223.269 69.582 223.725 69.582C225.525 69.582 226.027 68.6775 226.385 64.8178C226.582 62.7133 227.039 60.6625 227.334 60.2596C227.684 59.8566 228.785 59.5611 229.788 59.5611C231.839 59.5611 230.388 57.5103 243.364 79.1014C246.722 84.7611 250.833 91.4775 252.382 94.0387C254.836 97.9432 255.337 99.1969 255.642 101.857L255.946 105.018L246.275 121.101C236.451 137.489 236.102 137.937 233.397 140.391C231.74 141.842 229.493 142.191 228.436 141.143L228.445 141.134Z" fill="#6B28A8"/>
<path d="M256.403 67.6206C254.898 66.0714 248.531 59.9012 242.271 53.8923C232.295 44.3191 230.845 42.7161 230.845 41.4176C230.845 40.1639 230.997 40.0117 231.543 40.4684C231.892 40.7729 232.546 40.9161 232.994 40.7191C233.397 40.5669 233.898 40.6654 234.095 40.9699C234.248 41.2744 234.651 41.5251 234.901 41.5251C235.206 41.5251 235.251 41.3281 235.098 41.0236C234.946 40.7729 235.098 40.6744 235.501 40.8266C235.904 40.9788 236.352 40.7281 236.504 40.3251C236.701 39.8773 237.203 39.5191 237.606 39.5191C238.054 39.5191 238.26 39.3221 238.107 39.0176C237.955 38.7669 238.054 38.5161 238.358 38.5161C238.663 38.5161 238.806 38.3191 238.609 38.0684C238.457 37.8176 238.555 37.4684 238.806 37.3161C239.057 37.1191 239.406 37.2176 239.612 37.5132C239.764 37.7639 240.364 38.2654 240.91 38.5699C241.761 39.0176 241.913 38.9191 241.761 38.1669C241.663 37.7191 241.86 37.2624 242.11 37.2624C242.415 37.2624 243.113 36.9579 243.767 36.6087C244.618 36.1072 244.868 36.1072 244.868 36.5549C244.868 36.9579 245.218 36.8594 245.773 36.3579C246.274 35.8564 246.973 35.5072 247.322 35.5072C247.671 35.5072 247.77 35.2564 247.573 34.952C247.322 34.549 247.519 34.549 248.271 34.952C249.624 35.7042 250.027 35.6505 249.722 34.8535C249.525 34.352 249.821 34.1997 250.671 34.4057C251.522 34.5579 251.871 34.4057 251.871 33.8505C251.871 33.4475 251.567 32.946 251.271 32.8475C250.868 32.6952 250.967 32.543 251.522 32.543C251.97 32.4893 252.373 32.74 252.373 33.0445C252.373 33.349 252.722 33.2415 253.125 32.7938C253.573 32.3908 254.28 32.1938 254.728 32.346C255.328 32.5967 255.427 32.4982 255.131 31.9967C254.88 31.5938 255.48 31.746 256.582 32.3997C258.839 33.752 259.036 33.752 258.436 32.552C258.131 32.0505 258.086 31.4952 258.239 31.2982C258.391 31.146 258.337 30.9938 258.042 30.9938C257.791 30.9938 257.289 30.4385 256.985 29.74C256.233 28.0833 257.083 28.137 258.283 29.8385C260.692 33.2505 260.889 34.9967 260.889 52.3878C260.889 66.9221 260.988 68.8206 261.74 69.6803C262.492 70.5311 262.439 70.5848 260.836 70.5311C259.483 70.4326 258.579 69.8774 256.376 67.6206H256.403Z" fill="#6B28A8"/>
<path d="M167.809 182.721L167.961 161.524L180.239 153.16C187 148.548 196.877 141.787 202.242 138.124C207.606 134.47 212.164 131.506 212.468 131.614C212.719 131.712 213.624 131.515 214.421 131.264C215.37 130.915 216.221 130.915 216.83 131.211C217.483 131.56 217.931 131.408 218.63 130.655C219.436 129.751 219.982 129.652 222.086 129.903C223.439 130.055 224.639 130.208 224.746 130.208C224.8 130.208 224.845 130.405 224.845 130.709C224.845 130.96 225.498 132.115 226.295 133.315C227.101 134.47 227.594 135.769 227.45 136.226C227.2 136.879 227.253 136.879 228.05 136.279C228.749 135.679 229 135.679 229.349 136.181C229.546 136.53 229.6 137.282 229.501 137.784C229.349 138.339 229.501 139.082 229.85 139.485C230.352 140.085 230.603 140.041 231.606 139.082C234.212 136.629 235.259 135.724 235.564 135.724C235.716 135.724 235.868 136.378 235.868 137.229C235.868 138.178 234.668 140.784 232.564 144.348C223.698 159.384 215.88 172.458 213.57 176.067C212.119 178.27 209.209 183.035 207.059 186.59C202.098 194.855 197.083 200.273 193.125 201.527C187.859 203.229 182.853 203.882 175.233 203.882H167.719L167.818 182.739L167.809 182.721Z" fill="#7E35C3"/>
<path d="M218.325 75.832C217.573 74.9275 216.122 74.7752 216.57 75.7335C216.767 76.0379 216.418 75.7872 215.818 75.0797C215.218 74.3812 214.913 74.1305 215.119 74.5245C215.316 74.9723 215.271 75.1245 214.922 74.8737C214.618 74.6767 214.474 74.2738 214.618 73.9245C214.868 73.226 212.862 71.9185 212.012 72.1693C211.707 72.2678 205.045 67.9066 197.227 62.4976C189.409 57.0887 179.54 50.3722 175.376 47.5603L167.71 42.5006V21.3573V0.258789L173.576 0.563267C176.836 0.715506 181.197 1.11849 183.248 1.41401C187.761 2.06774 197.782 4.87073 197.782 5.47073C197.782 5.72148 198.785 6.97521 200.039 8.27372C202.546 10.9782 206.048 16.4946 221.039 41.4439C230.056 56.5245 231.364 58.9334 231.364 60.7334C231.31 62.6409 231.265 62.7394 230.612 61.7902C229.913 60.8857 229.806 60.8857 229.009 61.6917C228.355 62.3454 228.31 62.5424 228.812 62.5424C229.412 62.5424 229.367 62.6946 228.758 63.4469C228.31 64.0021 228.104 65.1484 228.158 66.6529C228.31 68.7036 228.104 69.1603 226.752 70.5126C225.803 71.4618 225.051 71.8648 224.845 71.5693C224.648 71.22 224.245 71.3185 223.842 71.82C223.492 72.2678 222.892 72.5185 222.489 72.3752C222.086 72.223 221.836 72.3752 221.934 72.7245C221.988 73.029 221.737 73.8797 221.334 74.5782C220.985 75.2767 220.779 75.9305 220.886 76.0827C220.985 76.2349 220.636 76.3872 220.036 76.4857C219.48 76.5842 218.683 76.2887 218.334 75.832H218.325Z" fill="#7E35C3"/>
<path d="M198.982 196.047C199.331 195.143 206.299 183.617 211.564 175.298C216.123 168.134 229.958 144.877 234.463 136.916C235.063 135.761 239.773 127.898 244.887 119.426C249.946 111.008 254.155 103.692 254.254 103.244C254.451 101.838 253.555 99.7874 250.699 95.2292C249.248 92.8203 246.042 87.5098 243.579 83.3546C241.17 79.2441 237.669 73.4859 235.815 70.5755C234.015 67.665 231.705 63.859 230.755 62.059C226.994 55.0471 203.048 15.5098 198.982 9.49185C197.782 7.73663 196.931 6.13364 197.03 5.88289C197.182 5.68588 199.484 7.79036 202.143 10.5933C210.311 19.2083 244.484 53.2381 255.66 63.8591C268.734 76.2352 288.284 95.3277 292.09 99.3397C293.639 101.041 294.946 102.644 295 102.993C295 103.746 263.782 133.808 262.475 134.31C261.92 134.462 261.373 134.865 261.176 135.161C261.024 135.465 260.827 142.629 260.773 151.092L260.72 166.522L260.567 151.289L260.415 136.11L253 143.122C245.63 150.089 208.099 187.773 202.537 193.737C199.681 196.79 198.382 197.641 198.982 196.038V196.047Z" fill="#943AD9"/>
<path d="M175.725 121.683C170.065 120.483 164.854 116.417 162.149 111.062C160.098 107.005 159.543 100.737 160.949 96.5276C162.857 90.6619 167.513 85.853 173.128 83.9992C177.033 82.7007 183.355 82.7992 187.009 84.1515C190.913 85.6022 195.328 89.7664 197.379 94.0201C198.928 97.1276 199.036 97.7276 199.036 102.384C199.036 106.79 198.883 107.749 197.63 110.354C195.624 114.662 192.418 118.226 188.71 120.178C186.051 121.584 184.904 121.88 181.743 121.978C179.692 122.077 176.979 121.925 175.734 121.674L175.725 121.683Z" fill="#FDE384"/>
<path d="M133.036 203.068C120.561 200.811 111.033 194.202 105.427 183.823C101.469 176.507 100.618 170.247 100.564 148.745C100.564 133.96 100.161 131.157 97.4567 126.098C95.4508 122.336 90.6418 117.832 86.3343 115.727C83.1284 114.124 76.3582 112.172 74.1552 112.172H73V102.402C73 94.9871 73.1522 92.5782 73.6537 92.4259C73.9582 92.3274 76.206 91.7722 78.6687 91.2259C89.4418 88.6737 96.006 83.2558 99.2657 74.1393C100.17 71.5871 100.269 69.4826 100.564 51.7871C100.869 34.0468 101.012 31.8975 101.97 28.3334C106.484 11.8468 119.057 2.32737 138.902 0.375133C141.955 0.124386 145.77 -0.0726281 147.418 0.0258794L150.427 0.178118L150.481 11.4527C150.481 17.6677 150.427 23.2289 150.284 23.8289C150.131 24.7334 149.728 24.9841 148.484 24.9841C145.779 24.9841 139.967 26.2826 137.907 27.3931C134.952 28.9423 132.248 31.7005 130.994 34.405C129.991 36.608 129.893 37.7095 129.588 54.7961C129.337 68.8289 129.087 73.7364 128.388 76.799C126.284 86.7752 121.627 94.1901 113.809 99.9483C111.758 101.453 110.102 102.859 110.102 103.056C110.102 103.253 110.952 103.907 112.009 104.462C119.773 108.975 125.442 116.739 127.994 126.662C129.149 131.22 129.248 132.429 129.445 148.011C129.597 157.127 129.946 165.545 130.197 166.799C131.746 173.614 137.666 177.921 146.684 178.727L150.445 179.077L150.597 191.507L150.696 203.883L143.827 203.829C140.021 203.829 135.212 203.48 133.054 203.077L133.036 203.068Z" fill="#EEE3FC"/>
<path d="M61.0367 307.242C58.1492 306.75 52.6177 304.053 52.9439 303.264C54.0882 300.62 56.9757 294.762 57.1412 294.762C57.2484 294.762 58.1784 295.171 59.1864 295.663C61.3922 296.754 63.8998 297.051 65.8622 296.535C67.5226 296.043 69.2415 294.353 69.8404 292.639C70.3565 291.086 70.6049 291.875 66.4075 281.824C51.8045 246.868 52.2671 248.036 52.6761 247.876C52.866 247.822 55.6999 247.793 58.9721 247.822L64.9127 247.905L70.6097 262.182C73.7456 270.031 76.3312 276.512 76.3847 276.541C76.4383 276.595 78.2935 272.018 80.5285 266.35C82.7635 260.711 85.3491 254.254 86.25 251.99L87.886 247.905H93.7438C98.7835 247.905 99.6016 247.958 99.548 248.314C99.4652 248.966 80.5821 295.97 79.7105 297.63C78.1036 300.82 75.815 303.542 73.58 304.988C72.874 305.45 71.2087 306.186 69.8745 306.624C67.7758 307.33 67.1477 307.442 64.6156 307.413C63.0331 307.383 61.4262 307.305 61.0464 307.247L61.0367 307.242Z" fill="#FFFEFE"/>
<path d="M202.178 292.177C197.927 291.797 193.404 290.487 190 288.637C188.091 287.629 184.96 285.394 184.605 284.824C184.415 284.522 187.22 278.83 187.546 278.83C187.682 278.83 188.252 279.186 188.797 279.595C191.495 281.693 195.692 283.68 199.315 284.581C202.368 285.345 207.218 285.535 209.726 285.019C215.067 283.875 217.979 280.904 217.979 276.654C217.979 273.82 216.864 271.774 214.41 270.143C212.613 268.945 209.886 267.991 203.128 266.194C194.981 264.013 192.474 262.898 189.615 260.035C184.819 255.268 184.357 247.72 188.471 241.668C194.275 233.141 209.969 231.423 221.738 238.045C222.8 238.644 223.701 239.243 223.701 239.379C223.701 239.486 223.072 241.015 222.284 242.729L220.896 245.865L220.053 245.32C214.551 241.721 209.346 240.416 203.459 241.205C197.494 241.994 193.925 244.857 193.54 249.132C193.16 253.247 195.449 255.944 200.98 257.795C201.906 258.121 205.095 259.046 208.065 259.864C216.401 262.124 219.265 263.487 221.987 266.404C224.957 269.564 226.208 273.678 225.609 278.202C224.874 283.763 222.04 287.575 216.728 290.166C212.696 292.128 208.391 292.727 202.178 292.182V292.177Z" fill="#FFFEFE"/>
<path d="M117.822 291.631C112.729 290.297 109.374 287.298 107.85 282.667C107.276 280.948 107.251 280.325 107.144 269.914L107.037 258.934H103.93H100.824V253.894V248.855H103.96H107.095V243.839C107.095 241.088 107.178 238.634 107.261 238.39C107.397 238.011 108.215 237.952 113.391 237.952H119.356V243.401V248.85H124.532H129.708V253.865V258.88L124.805 258.963C121.752 259.046 119.819 259.182 119.629 259.372C119.41 259.591 119.356 262.532 119.41 269.179C119.493 278.523 119.493 278.713 120.116 279.667C120.442 280.213 121.177 280.895 121.752 281.167C123.198 281.902 125.896 281.82 127.746 281.002C128.535 280.675 129.217 280.427 129.27 280.486C129.46 280.675 132.484 288.739 132.513 289.148C132.567 289.64 128.915 291.519 127.172 291.899C125.049 292.362 120.033 292.225 117.827 291.626L117.822 291.631Z" fill="#FFFEFE"/>
<path d="M153.105 291.768C145.339 290.215 139.048 285.282 136.35 278.606C135.016 275.31 134.743 273.756 134.768 269.559C134.797 266.097 134.904 265.308 135.532 263.21C137.821 255.555 143.245 250.184 150.87 247.978C153.948 247.078 160.215 247.078 163.297 247.978C173.298 250.866 179.02 259.261 178.694 270.513L178.611 273.24L163.16 273.377C153.217 273.459 147.603 273.62 147.437 273.786C147.028 274.195 148.256 276.649 149.619 278.144C153.733 282.584 161.909 283.13 166.949 279.288C167.791 278.66 168.609 278.037 168.775 277.925C168.965 277.759 170.275 278.903 172.48 281.138C174.36 283.018 175.913 284.654 175.967 284.79C175.996 284.897 175.202 285.798 174.194 286.753C171.74 289.041 167.684 291.193 164.685 291.768C162.041 292.26 155.637 292.284 153.105 291.768ZM164.933 265.854C167.002 265.664 167.032 265.664 166.866 264.953C166.511 263.346 164.797 260.293 163.73 259.368C161.578 257.542 160.434 257.162 157.084 257.186C153.568 257.186 152.317 257.624 150.271 259.504C148.475 261.164 146.595 264.656 146.975 265.664C147.082 265.936 148.801 266.019 154.985 266.019C159.319 266.019 163.784 265.936 164.928 265.854H164.933Z" fill="#FFFEFE"/>
<path d="M245.685 291.879C242.253 291.061 239.419 288.909 238.031 286.051C236.585 283.109 236.478 281.882 236.478 267.878V254.989H233.074H229.67V251.853V248.718H233.074H236.478L236.531 244.033L236.614 239.32L240.237 239.237L243.835 239.154V243.951V248.718H249.693H255.551V251.853V254.989H250.73C248.062 254.989 245.418 255.072 244.843 255.179L243.806 255.345L243.889 268.044L243.971 280.743L244.736 282.267C246.396 285.7 250.078 286.625 254.192 284.663C255.117 284.225 255.911 283.874 255.965 283.874C256.018 283.874 256.237 284.39 256.456 285.047C256.675 285.676 257.162 286.873 257.547 287.716C258.2 289.162 258.229 289.298 257.791 289.678C256.865 290.467 254.713 291.558 253.32 291.938C251.524 292.4 247.735 292.4 245.69 291.884L245.685 291.879Z" fill="#FFFEFE"/>
<path d="M274.682 291.769C272.121 291.194 269.803 289.996 267.953 288.282C265.338 285.887 264.028 282.916 264.028 279.454C264.028 273.489 267.271 269.18 273.294 267.223C274.575 266.814 276.099 266.731 283.593 266.624L292.421 266.517L292.231 264.447C291.851 259.68 290.352 257.007 287.245 255.483C285.775 254.747 285.526 254.718 281.743 254.718C278.281 254.718 277.545 254.801 275.885 255.371C273.489 256.189 271.634 257.114 269.944 258.287C269.238 258.804 268.557 259.213 268.42 259.213C268.177 259.213 265.396 254.173 265.396 253.71C265.396 253.384 269.511 250.769 270.056 250.769C270.3 250.769 270.655 250.579 270.845 250.36C271.035 250.141 271.688 249.815 272.316 249.625C272.915 249.459 273.567 249.216 273.704 249.109C274.083 248.836 276.591 248.374 279.561 248.018C286.51 247.2 293.375 249.679 296.565 254.149C299.482 258.21 299.779 260.552 299.672 278.563L299.589 291.233L296.127 291.316L292.64 291.399V289.193C292.64 286.525 292.421 286.442 290.245 288.404C288.608 289.85 285.585 291.457 283.598 291.92C281.937 292.3 276.732 292.222 274.687 291.783L274.682 291.769ZM283.783 285.775C286.373 285.093 287.732 284.304 289.641 282.395C291.847 280.19 292.095 279.425 292.095 275.174V272.014H286.729C280.978 272.043 276.703 272.477 275.096 273.241C273.543 273.976 272.072 275.802 271.663 277.463C270.276 283.238 276.679 287.601 283.788 285.775H283.783Z" fill="#FFFEFE"/>
<path d="M359.335 290.69C354.704 289.546 351.734 286.522 350.614 281.755C350.288 280.367 350.205 277.587 350.205 266.903V253.742H346.665H343.125V250.606V247.47H346.665H350.205L350.259 242.649L350.341 237.8L353.068 237.717C354.568 237.663 356.204 237.717 356.691 237.8L357.562 237.965V242.708V247.475H363.693H369.823V250.445C369.823 252.106 369.716 253.498 369.604 253.581C369.468 253.664 366.824 253.8 363.746 253.907C359.739 254.044 358.025 254.209 357.806 254.453C357.616 254.672 357.562 258.893 357.616 267.288L357.699 279.768L358.351 280.995C359.661 283.527 361.078 284.374 363.99 284.374C365.626 284.374 366.171 284.267 367.749 283.474C368.757 282.982 369.629 282.631 369.682 282.685C369.872 282.875 372 287.617 372 287.837C372 288.299 369.083 290.018 367.394 290.534C365.407 291.162 361.536 291.24 359.33 290.7L359.335 290.69Z" fill="#FFFEFE"/>
<path d="M0.00487406 263.019V234.655L16.4339 234.762C34.4698 234.87 34.7181 234.899 38.9106 236.642C44.1987 238.823 47.057 242.69 47.5488 248.304C48.0113 253.592 45.7228 258.822 42.0464 260.891C41.2576 261.329 40.6002 261.792 40.6002 261.87C40.6002 261.977 41.5011 262.469 42.5626 262.985C47.3296 265.22 50.0029 269.987 49.9737 276.229C49.9201 283.587 46.458 287.891 38.5552 290.56L36.6464 291.212L18.3378 291.295L0 291.378V263.014L0.00487406 263.019ZM33.1648 280.212C35.7261 279.068 37.0603 277.023 37.0603 274.218C37.0603 272.339 36.4857 270.893 35.2878 269.67C33.2427 267.625 32.7266 267.547 22.1553 267.435L12.8111 267.353V274.194V281.06L22.2917 280.953C31.4995 280.845 31.7722 280.845 33.1648 280.217V280.212ZM30.7399 257.161C33.4667 256.343 34.8837 254.41 34.8837 251.44C34.8837 248.635 33.793 246.999 31.2074 245.801C29.8975 245.202 29.5469 245.173 21.3422 245.095L12.816 245.012V251.279V257.575H21.0695C27.6917 257.575 29.6248 257.492 30.7399 257.166V257.161Z" fill="#FFFEFE"/>
<path d="M312.585 270.05L312.668 248.718H316.208H319.748L319.694 252.341L319.64 255.963L320.678 254.381C323.185 250.51 327.952 248.06 333.046 248.031H334.599V251.708C334.599 253.723 334.516 255.384 334.409 255.413C329.452 255.739 328.386 255.905 326.891 256.611C323.813 258.081 321.768 260.862 320.678 265.137C320.215 267.017 320.161 268.215 320.161 279.278V291.349H316.349H312.536L312.59 270.04L312.585 270.05Z" fill="#FFFEFE"/>
</svg>
