<svg width="1069" height="228" viewBox="0 0 1069 228" fill="none" xmlns="http://www.w3.org/2000/svg">
<path d="M135.42 223.399C135.42 222.219 139.34 218.079 165.3 192.009C186.96 170.239 185.67 171.079 190.76 174.939C192.33 176.059 193.61 177.289 193.61 177.629C193.61 177.969 194.39 178.409 195.29 178.639C196.3 178.809 196.97 179.309 196.97 179.819C196.97 180.269 197.47 180.659 198.09 180.659C198.71 180.659 199.21 180.939 199.21 181.219C199.21 181.559 199.66 181.779 200.22 181.779C200.78 181.779 201.56 182.279 202.01 182.899C202.46 183.519 203.24 184.019 203.8 184.019C204.36 184.019 204.81 184.299 204.81 184.579C204.81 184.919 205.54 185.139 206.43 185.139C209.4 185.139 209.79 185.529 209.51 188.329C209.06 192.689 205.54 197.839 201.56 199.909C200.22 200.579 167.87 212.889 153.88 217.979C134.24 225.199 135.41 224.859 135.41 223.409L135.42 223.399Z" fill="#5B1D92"/>
<path d="M208.16 60.6187C208.16 45.5087 208.27 42.4287 208.94 42.4287C209.33 42.4287 209.84 42.9887 210.06 43.7187C210.23 44.3887 210.4 52.2787 210.4 61.2287C210.4 73.0887 210.57 77.6287 211.07 78.1287C211.57 78.6287 211.35 78.7987 209.95 78.7987H208.16V60.6087V60.6187Z" fill="#5B1D92"/>
<path d="M177.33 47.6388C176.38 47.4688 171.57 43.0488 161.94 33.3188C140.34 11.4988 137.65 8.58879 137.65 6.95879C137.65 6.17879 137.87 5.50879 138.15 5.50879C138.43 5.50879 146.71 8.41879 156.5 11.9988C166.29 15.5788 179.55 20.3888 186.05 22.6888C199.87 27.6688 203.45 29.3488 205.8 32.0888C207.42 33.9388 209.27 37.4088 209.27 38.5788C209.27 39.3088 205.52 39.1988 204.23 38.4088C203.33 37.8488 203 37.9088 202.1 38.9688C201.48 39.6388 200.59 40.1988 200.09 40.1988C199.59 40.1988 199.19 40.4788 199.19 40.7588C199.19 41.0988 198.35 41.3188 197.29 41.3188C196.28 41.3188 195.11 41.7088 194.72 42.1588C194.33 42.6088 193.54 42.9988 193.04 42.9988C191.47 42.9988 190.24 43.6188 190.24 44.3988C190.24 44.7888 189.23 45.1788 187.67 45.4088C186.1 45.5788 184.7 46.1388 184.03 46.8588C182.91 48.0388 181.12 48.2588 177.32 47.6388H177.33Z" fill="#5B1D92"/>
<path d="M205.08 188.369C204.46 188.029 203.79 187.529 203.63 187.249C203.46 186.909 203.13 186.749 202.9 186.749C201.89 186.919 201.78 186.749 202.56 186.249C203.23 185.799 203.18 185.689 202.28 185.689C201.66 185.689 200.77 185.189 200.38 184.629C199.93 184.009 199.26 183.679 198.87 183.849C198.42 184.019 197.92 183.739 197.75 183.179C197.53 182.679 197.02 182.399 196.57 182.559C196.07 182.779 195.62 182.449 195.45 181.779C195.23 181.049 194.5 180.489 193.55 180.269C192.65 180.099 191.93 179.649 191.93 179.319C191.93 178.979 190.64 177.749 189.08 176.579C186.73 174.849 186.06 174.569 185.39 175.129C184.72 175.749 184.61 175.519 184.77 173.839C184.94 172.109 186.22 170.709 196.35 161.029C205.36 152.409 208.05 150.119 209.44 150.009C210.84 149.839 211.06 149.949 210.5 150.569C210.05 151.129 209.83 156.729 209.83 169.929L209.77 188.509L208.15 187.669C206.02 186.549 205.74 186.609 206.19 187.949C206.58 189.239 206.58 189.239 205.07 188.399L205.08 188.369Z" fill="#6B28A8"/>
<path d="M173.58 157.6C173.19 157.21 172.91 156.37 172.91 155.64C172.91 154.74 172.57 154.35 171.79 154.35C171.06 154.35 170.67 153.96 170.67 153.29C170.67 152.73 170.05 151.33 169.27 150.21C168.49 149.09 167.87 147.92 167.87 147.64C167.87 146.8 164.74 146.97 164.01 147.86C163.11 148.92 153.66 149.09 153.99 148.03C154.27 147.3 164.9 139.92 187.56 124.86C195.79 119.38 202.5 114.62 202.56 114.23C202.56 113.84 202 113.22 201.33 112.89C199.99 112.16 167.2 89.7195 158.8 83.7395C155.78 81.6095 153.32 79.6595 153.32 79.3795C153.32 79.0395 154.44 78.8195 155.78 78.8195C157.79 78.8195 158.52 79.0995 159.86 80.4995C161.93 82.7395 163.83 82.7395 164.28 80.4995C164.56 79.3795 164.95 78.8195 165.68 78.8195C166.24 78.8195 166.86 78.5395 167.02 78.2595C167.19 77.9195 167.8 77.6995 168.31 77.6995C170.32 77.6995 170.88 76.6895 171.28 72.3795C171.5 70.0295 172.01 67.7395 172.34 67.2895C172.73 66.8395 173.96 66.5095 175.08 66.5095C177.37 66.5095 175.75 64.2195 190.24 88.3295C193.99 94.6495 198.58 102.15 200.31 105.01C203.05 109.37 203.61 110.77 203.95 113.74L204.29 117.27L193.49 135.23C182.52 153.53 182.13 154.03 179.11 156.77C177.26 158.39 174.75 158.78 173.57 157.61L173.58 157.6Z" fill="#6B28A8"/>
<path d="M204.8 75.5094C203.12 73.7794 196.01 66.8894 189.02 60.1794C177.88 49.4894 176.26 47.6994 176.26 46.2494C176.26 44.8494 176.43 44.6794 177.04 45.1894C177.43 45.5294 178.16 45.6894 178.66 45.4694C179.11 45.2994 179.67 45.4094 179.89 45.7494C180.06 46.0894 180.51 46.3694 180.79 46.3694C181.13 46.3694 181.18 46.1494 181.01 45.8094C180.84 45.5294 181.01 45.4194 181.46 45.5894C181.91 45.7594 182.41 45.4794 182.58 45.0294C182.8 44.5294 183.36 44.1294 183.81 44.1294C184.31 44.1294 184.54 43.9094 184.37 43.5694C184.2 43.2894 184.31 43.0094 184.65 43.0094C184.99 43.0094 185.15 42.7894 184.93 42.5094C184.76 42.2294 184.87 41.8394 185.15 41.6694C185.43 41.4494 185.82 41.5594 186.05 41.8894C186.22 42.1694 186.89 42.7294 187.5 43.0694C188.45 43.5694 188.62 43.4594 188.45 42.6194C188.34 42.1194 188.56 41.6094 188.84 41.6094C189.18 41.6094 189.96 41.2694 190.69 40.8794C191.64 40.3194 191.92 40.3194 191.92 40.8194C191.92 41.2694 192.31 41.1594 192.93 40.5994C193.49 40.0394 194.27 39.6494 194.66 39.6494C195.05 39.6494 195.16 39.3694 194.94 39.0294C194.66 38.5794 194.88 38.5794 195.72 39.0294C197.23 39.8694 197.68 39.8094 197.34 38.9194C197.12 38.3594 197.45 38.1894 198.4 38.4194C199.35 38.5894 199.74 38.4194 199.74 37.7994C199.74 37.3494 199.4 36.7894 199.07 36.6794C198.62 36.5094 198.73 36.3394 199.35 36.3394C199.85 36.2794 200.3 36.5594 200.3 36.8994C200.3 37.2394 200.69 37.1194 201.14 36.6194C201.64 36.1694 202.43 35.9494 202.93 36.1194C203.6 36.3994 203.71 36.2894 203.38 35.7294C203.1 35.2794 203.77 35.4494 205 36.1794C207.52 37.6894 207.74 37.6894 207.07 36.3494C206.73 35.7894 206.68 35.1694 206.85 34.9494C207.02 34.7794 206.96 34.6094 206.63 34.6094C206.35 34.6094 205.79 33.9894 205.45 33.2094C204.61 31.3594 205.56 31.4194 206.9 33.3194C209.59 37.1294 209.81 39.0794 209.81 58.4994C209.81 74.7294 209.92 76.8494 210.76 77.8094C211.6 78.7594 211.54 78.8194 209.75 78.7594C208.24 78.6494 207.23 78.0294 204.77 75.5094H204.8Z" fill="#6B28A8"/>
<path d="M105.87 204.039L106.04 180.369L119.75 171.029C127.3 165.879 138.33 158.329 144.32 154.239C150.31 150.159 155.4 146.849 155.74 146.969C156.02 147.079 157.03 146.859 157.92 146.579C158.98 146.189 159.93 146.189 160.61 146.519C161.34 146.909 161.84 146.739 162.62 145.899C163.52 144.889 164.13 144.779 166.48 145.059C167.99 145.229 169.33 145.399 169.45 145.399C169.51 145.399 169.56 145.619 169.56 145.959C169.56 146.239 170.29 147.529 171.18 148.869C172.08 150.159 172.63 151.609 172.47 152.119C172.19 152.849 172.25 152.849 173.14 152.179C173.92 151.509 174.2 151.509 174.59 152.069C174.81 152.459 174.87 153.299 174.76 153.859C174.59 154.479 174.76 155.309 175.15 155.759C175.71 156.429 175.99 156.379 177.11 155.309C180.02 152.569 181.19 151.559 181.53 151.559C181.7 151.559 181.87 152.289 181.87 153.239C181.87 154.299 180.53 157.209 178.18 161.189C168.28 177.979 159.55 192.579 156.97 196.609C155.35 199.069 152.1 204.389 149.7 208.359C144.16 217.589 138.56 223.639 134.14 225.039C128.26 226.939 122.67 227.669 114.16 227.669H105.77L105.88 204.059L105.87 204.039Z" fill="#7E35C3"/>
<path d="M162.28 84.6791C161.44 83.6691 159.82 83.4991 160.32 84.5691C160.54 84.9091 160.15 84.6291 159.48 83.8391C158.81 83.0591 158.47 82.7791 158.7 83.2191C158.92 83.7191 158.87 83.8891 158.48 83.6091C158.14 83.3891 157.98 82.9391 158.14 82.5491C158.42 81.7691 156.18 80.3091 155.23 80.5891C154.89 80.6991 147.45 75.8291 138.72 69.7891C129.99 63.7491 118.97 56.2491 114.32 53.1091L105.76 47.4591V23.8491V0.289062L112.31 0.629063C115.95 0.799063 120.82 1.24906 123.11 1.57906C128.15 2.30906 139.34 5.43906 139.34 6.10906C139.34 6.38906 140.46 7.78906 141.86 9.23906C144.66 12.2591 148.57 18.4191 165.31 46.2791C175.38 63.1191 176.84 65.8091 176.84 67.8191C176.78 69.9491 176.73 70.0591 176 68.9991C175.22 67.9891 175.1 67.9891 174.21 68.8891C173.48 69.6191 173.43 69.8391 173.99 69.8391C174.66 69.8391 174.61 70.0091 173.93 70.8491C173.43 71.4691 173.2 72.7491 173.26 74.4291C173.43 76.7191 173.2 77.2291 171.69 78.7391C170.63 79.7991 169.79 80.2491 169.56 79.9191C169.34 79.5291 168.89 79.6391 168.44 80.1991C168.05 80.6991 167.38 80.9791 166.93 80.8191C166.48 80.6491 166.2 80.8191 166.31 81.2091C166.37 81.5491 166.09 82.4991 165.64 83.2791C165.25 84.0591 165.02 84.7891 165.14 84.9591C165.25 85.1291 164.86 85.2991 164.19 85.4091C163.57 85.5191 162.68 85.1891 162.29 84.6791H162.28Z" fill="#7E35C3"/>
<path d="M140.68 218.919C141.07 217.909 148.85 205.039 154.73 195.749C159.82 187.749 175.27 161.779 180.3 152.889C180.97 151.599 186.23 142.819 191.94 133.359C197.59 123.959 202.29 115.789 202.4 115.289C202.62 113.719 201.62 111.429 198.43 106.339C196.81 103.649 193.23 97.719 190.48 93.079C187.79 88.489 183.88 82.059 181.81 78.809C179.8 75.559 177.22 71.309 176.16 69.299C171.96 61.469 145.22 17.319 140.68 10.599C139.34 8.63895 138.39 6.84896 138.5 6.56896C138.67 6.34896 141.24 8.69895 144.21 11.829C153.33 21.449 191.49 59.449 203.97 71.309C218.57 85.129 240.4 106.449 244.65 110.929C246.38 112.829 247.84 114.619 247.9 115.009C247.9 115.849 213.04 149.419 211.58 149.979C210.96 150.149 210.35 150.599 210.13 150.929C209.96 151.269 209.74 159.269 209.68 168.719L209.62 185.949L209.45 168.939L209.28 151.989L201 159.819C192.77 167.599 150.86 209.679 144.65 216.339C141.46 219.749 140.01 220.699 140.68 218.909V218.919Z" fill="#943AD9"/>
<path d="M114.71 135.879C108.39 134.539 102.57 129.999 99.5499 124.019C97.2599 119.489 96.6399 112.489 98.2099 107.789C100.34 101.239 105.54 95.869 111.81 93.799C116.17 92.349 123.23 92.459 127.31 93.969C131.67 95.589 136.6 100.239 138.89 104.989C140.62 108.459 140.74 109.129 140.74 114.329C140.74 119.249 140.57 120.319 139.17 123.229C136.93 128.039 133.35 132.019 129.21 134.199C126.24 135.769 124.96 136.099 121.43 136.209C119.14 136.319 116.11 136.149 114.72 135.869L114.71 135.879Z" fill="#FDE384"/>
<path d="M67.04 226.759C53.11 224.239 42.47 216.859 36.21 205.269C31.79 197.099 30.84 190.109 30.78 166.099C30.78 149.589 30.33 146.459 27.31 140.809C25.07 136.609 19.7 131.579 14.89 129.229C11.31 127.439 3.75 125.259 1.29 125.259H0V114.349C0 106.069 0.17 103.379 0.73 103.209C1.07 103.099 3.58 102.479 6.33 101.869C18.36 99.0189 25.69 92.9689 29.33 82.7889C30.34 79.9389 30.45 77.5889 30.78 57.8289C31.12 38.0189 31.28 35.6189 32.35 31.6389C37.39 13.2289 51.43 2.5989 73.59 0.418898C77 0.138898 81.26 -0.0811013 83.1 0.0288987L86.46 0.198899L86.52 12.7889C86.52 19.7289 86.46 25.9389 86.3 26.6089C86.13 27.6189 85.68 27.8989 84.29 27.8989C81.27 27.8989 74.78 29.3489 72.48 30.5889C69.18 32.3189 66.16 35.3989 64.76 38.4189C63.64 40.8789 63.53 42.1089 63.19 61.1889C62.91 76.8589 62.63 82.3389 61.85 85.7589C59.5 96.8989 54.3 105.179 45.57 111.609C43.28 113.289 41.43 114.859 41.43 115.079C41.43 115.299 42.38 116.029 43.56 116.649C52.23 121.689 58.56 130.359 61.41 141.439C62.7 146.529 62.81 147.879 63.03 165.279C63.2 175.459 63.59 184.859 63.87 186.259C65.6 193.869 72.21 198.679 82.28 199.579L86.48 199.969L86.65 213.849L86.76 227.669L79.09 227.609C74.84 227.609 69.47 227.219 67.06 226.769L67.04 226.759Z" fill="#EEE3FC"/>
<path d="M430.31 203.199C424.38 202.189 413.02 196.649 413.69 195.029C416.04 189.599 421.97 177.569 422.31 177.569C422.53 177.569 424.44 178.409 426.51 179.419C431.04 181.659 436.19 182.269 440.22 181.209C443.63 180.199 447.16 176.729 448.39 173.209C449.45 170.019 449.96 171.639 441.34 150.999C411.35 79.2092 412.3 81.6092 413.14 81.2792C413.53 81.1692 419.35 81.1092 426.07 81.1692L438.27 81.3392L449.97 110.659C456.41 126.779 461.72 140.089 461.83 140.149C461.94 140.259 465.75 130.859 470.34 119.219C474.93 107.639 480.24 94.3792 482.09 89.7292L485.45 81.3392H497.48C507.83 81.3392 509.51 81.4492 509.4 82.1792C509.23 83.5192 470.45 180.049 468.66 183.459C465.36 190.009 460.66 195.599 456.07 198.569C454.62 199.519 451.2 201.029 448.46 201.929C444.15 203.379 442.86 203.609 437.66 203.549C434.41 203.489 431.11 203.329 430.33 203.209L430.31 203.199Z" fill="#FFFEFE"/>
<path d="M720.17 172.259C711.44 171.479 702.15 168.789 695.16 164.989C691.24 162.919 684.81 158.329 684.08 157.159C683.69 156.539 689.45 144.849 690.12 144.849C690.4 144.849 691.57 145.579 692.69 146.419C698.23 150.729 706.85 154.809 714.29 156.659C720.56 158.229 730.52 158.619 735.67 157.559C746.64 155.209 752.62 149.109 752.62 140.379C752.62 134.559 750.33 130.359 745.29 127.009C741.6 124.549 736 122.589 722.12 118.899C705.39 114.419 700.24 112.129 694.37 106.249C684.52 96.459 683.57 80.959 692.02 68.529C703.94 51.019 736.17 47.489 760.34 61.089C762.52 62.319 764.37 63.549 764.37 63.829C764.37 64.049 763.08 67.189 761.46 70.709L758.61 77.149L756.88 76.029C745.58 68.639 734.89 65.959 722.8 67.579C710.55 69.199 703.22 75.079 702.43 83.859C701.65 92.309 706.35 97.849 717.71 101.649C719.61 102.319 726.16 104.219 732.26 105.899C749.38 110.539 755.26 113.339 760.85 119.329C766.95 125.819 769.52 134.269 768.29 143.559C766.78 154.979 760.96 162.809 750.05 168.129C741.77 172.159 732.93 173.389 720.17 172.269V172.259Z" fill="#FFFEFE"/>
<path d="M546.93 171.138C536.47 168.398 529.58 162.238 526.45 152.728C525.27 149.198 525.22 147.918 525 126.538L524.78 103.988H518.4H512.02V93.6384V83.2884H518.46H524.9V72.9884C524.9 67.3384 525.07 62.2984 525.24 61.7984C525.52 61.0184 527.2 60.8984 537.83 60.8984H550.08V72.0884V83.2784H560.71H571.34V93.5784V103.878L561.27 104.048C555 104.218 551.03 104.498 550.64 104.888C550.19 105.338 550.08 111.378 550.19 125.028C550.36 144.218 550.36 144.608 551.64 146.568C552.31 147.688 553.82 149.088 555 149.648C557.97 151.158 563.51 150.988 567.31 149.308C568.93 148.638 570.33 148.128 570.44 148.248C570.83 148.638 577.04 165.198 577.1 166.038C577.21 167.048 569.71 170.908 566.13 171.688C561.77 172.638 551.47 172.358 546.94 171.128L546.93 171.138Z" fill="#FFFEFE"/>
<path d="M619.39 171.419C603.44 168.229 590.52 158.099 584.98 144.389C582.24 137.619 581.68 134.429 581.73 125.809C581.79 118.699 582.01 117.079 583.3 112.769C588 97.0491 599.14 86.0191 614.8 81.4891C621.12 79.6391 633.99 79.6391 640.32 81.4891C660.86 87.4191 672.61 104.659 671.94 127.769L671.77 133.369L640.04 133.649C619.62 133.819 608.09 134.149 607.75 134.489C606.91 135.329 609.43 140.369 612.23 143.439C620.68 152.559 637.47 153.679 647.82 145.789C649.55 144.499 651.23 143.219 651.57 142.989C651.96 142.649 654.65 144.999 659.18 149.589C663.04 153.449 666.23 156.809 666.34 157.089C666.4 157.309 664.77 159.159 662.7 161.119C657.66 165.819 649.33 170.239 643.17 171.419C637.74 172.429 624.59 172.479 619.39 171.419ZM643.68 118.199C647.93 117.809 647.99 117.809 647.65 116.349C646.92 113.049 643.4 106.779 641.21 104.879C636.79 101.129 634.44 100.349 627.56 100.399C620.34 100.399 617.77 101.299 613.57 105.159C609.88 108.569 606.02 115.739 606.8 117.809C607.02 118.369 610.55 118.539 623.25 118.539C632.15 118.539 641.32 118.369 643.67 118.199H643.68Z" fill="#FFFEFE"/>
<path d="M809.52 171.649C802.47 169.969 796.65 165.549 793.8 159.679C790.83 153.639 790.61 151.119 790.61 122.359V95.8891H783.62H776.63V89.4491V83.0091H783.62H790.61L790.72 73.3891L790.89 63.7091L798.33 63.5391L805.72 63.3691V73.2191V83.0091H817.75H829.78V89.4491V95.8891H819.88C814.4 95.8891 808.97 96.0591 807.79 96.2791L805.66 96.6191L805.83 122.699L806 148.779L807.57 151.909C810.98 158.959 818.54 160.859 826.99 156.829C828.89 155.929 830.52 155.209 830.63 155.209C830.74 155.209 831.19 156.269 831.64 157.619C832.09 158.909 833.09 161.369 833.88 163.099C835.22 166.069 835.28 166.349 834.38 167.129C832.48 168.749 828.06 170.989 825.2 171.769C821.51 172.719 813.73 172.719 809.53 171.659L809.52 171.649Z" fill="#FFFEFE"/>
<path d="M869.07 171.419C863.81 170.239 859.05 167.779 855.25 164.259C849.88 159.339 847.19 153.239 847.19 146.129C847.19 133.879 853.85 125.029 866.22 121.009C868.85 120.169 871.98 119.999 887.37 119.779L905.5 119.559L905.11 115.309C904.33 105.519 901.25 100.029 894.87 96.899C891.85 95.389 891.34 95.329 883.57 95.329C876.46 95.329 874.95 95.499 871.54 96.669C866.62 98.349 862.81 100.249 859.34 102.659C857.89 103.719 856.49 104.559 856.21 104.559C855.71 104.559 850 94.209 850 93.259C850 92.589 858.45 87.219 859.57 87.219C860.07 87.219 860.8 86.829 861.19 86.379C861.58 85.929 862.92 85.259 864.21 84.869C865.44 84.529 866.78 84.029 867.06 83.809C867.84 83.249 872.99 82.299 879.09 81.569C893.36 79.889 907.46 84.979 914.01 94.159C920 102.499 920.61 107.309 920.39 144.299L920.22 170.319L913.11 170.489L905.95 170.659V166.129C905.95 160.649 905.5 160.479 901.03 164.509C897.67 167.479 891.46 170.779 887.38 171.729C883.97 172.509 873.28 172.349 869.08 171.449L869.07 171.419ZM887.76 159.109C893.08 157.709 895.87 156.089 899.79 152.169C904.32 147.639 904.83 146.069 904.83 137.339V130.849H893.81C882 130.909 873.22 131.799 869.92 133.369C866.73 134.879 863.71 138.629 862.87 142.039C860.02 153.899 873.17 162.859 887.77 159.109H887.76Z" fill="#FFFEFE"/>
<path d="M1042.92 169.203C1033.41 166.853 1027.31 160.643 1025.01 150.853C1024.34 148.003 1024.17 142.293 1024.17 120.353V93.3233H1016.9H1009.63V86.8833V80.4433H1016.9H1024.17L1024.28 70.5433L1024.45 60.5833L1030.05 60.4133C1033.13 60.3033 1036.49 60.4133 1037.49 60.5833L1039.28 60.9233V70.6633V80.4533H1051.87H1064.46V86.5533C1064.46 89.9633 1064.24 92.8233 1064.01 92.9933C1063.73 93.1633 1058.3 93.4433 1051.98 93.6633C1043.75 93.9433 1040.23 94.2833 1039.78 94.7833C1039.39 95.2333 1039.28 103.903 1039.39 121.143L1039.56 146.773L1040.9 149.293C1043.59 154.493 1046.5 156.233 1052.48 156.233C1055.84 156.233 1056.96 156.013 1060.2 154.383C1062.27 153.373 1064.06 152.653 1064.17 152.763C1064.56 153.153 1068.93 162.893 1068.93 163.343C1068.93 164.293 1062.94 167.823 1059.47 168.883C1055.39 170.173 1047.44 170.333 1042.91 169.223L1042.92 169.203Z" fill="#FFFEFE"/>
<path d="M304.97 112.379V54.1289L338.71 54.3489C375.75 54.5689 376.26 54.6289 384.87 58.2089C395.73 62.6889 401.6 70.6289 402.61 82.1589C403.56 93.0189 398.86 103.759 391.31 108.009C389.69 108.909 388.34 109.859 388.34 110.019C388.34 110.239 390.19 111.249 392.37 112.309C402.16 116.899 407.65 126.689 407.59 139.509C407.48 154.619 400.37 163.459 384.14 168.939L380.22 170.279L342.62 170.449L304.96 170.619V112.369L304.97 112.379ZM373.07 147.689C378.33 145.339 381.07 141.139 381.07 135.379C381.07 131.519 379.89 128.549 377.43 126.039C373.23 121.839 372.17 121.679 350.46 121.449L331.27 121.279V135.329V149.429L350.74 149.209C369.65 148.989 370.21 148.989 373.07 147.699V147.689ZM368.09 100.349C373.69 98.6689 376.6 94.6989 376.6 88.5989C376.6 82.8389 374.36 79.4789 369.05 77.0189C366.36 75.7889 365.64 75.7289 348.79 75.5689L331.28 75.3989V88.2689V101.199H348.23C361.83 101.199 365.8 101.029 368.09 100.359V100.349Z" fill="#FFFEFE"/>
<path d="M946.91 126.819L947.08 83.0086H954.35H961.62L961.51 90.4486L961.4 97.8886L963.53 94.6386C968.68 86.6886 978.47 81.6586 988.93 81.5986H992.12V89.1486C992.12 93.2886 991.95 96.6986 991.73 96.7586C981.55 97.4286 979.36 97.7686 976.29 99.2186C969.97 102.239 965.77 107.949 963.53 116.729C962.58 120.589 962.47 123.049 962.47 145.769V170.559H954.64H946.81L946.92 126.799L946.91 126.819Z" fill="#FFFEFE"/>
</svg>
